<svg width="110" height="110" viewBox="0 0 110 110" fill="none" xmlns="http://www.w3.org/2000/svg">
<path d="M105.38 37.73C98.6698 17.6 79.7498 3.08 57.3098 3.08C34.8698 3.08 16.0598 17.6 9.34982 37.73H105.38Z" fill="url(#paint0_linear)"/>
<path d="M7.91982 43.23C7.25982 46.53 6.81982 50.05 6.81982 53.57C6.81982 81.51 29.4798 104.17 57.4198 104.17C85.3598 104.17 108.02 81.51 108.02 53.57C108.02 50.05 107.69 46.53 106.92 43.23H7.91982Z" fill="url(#paint1_linear)"/>
<path d="M11.8799 50.71L13.5299 58.85H87.7799L80.6299 98.12H89.4299L98.1199 50.71H11.8799Z" fill="url(#paint2_linear)"/>
<path d="M37.7299 63.36C34.0999 63.36 31.2399 65.23 31.2399 67.65V81.29C31.2399 83.6 34.0999 85.58 37.7299 85.58C41.3599 85.58 44.2199 83.71 44.2199 81.29V67.54C44.2199 65.23 41.3599 63.36 37.7299 63.36Z" fill="url(#paint3_linear)"/>
<path d="M54.9999 63.36C51.4799 63.36 48.5099 65.23 48.5099 67.65V81.29C48.5099 83.6 51.3699 85.58 54.9999 85.58C58.5199 85.58 61.4899 83.71 61.4899 81.29V67.54C61.4899 65.23 58.6299 63.36 54.9999 63.36Z" fill="url(#paint4_linear)"/>
<path d="M72.1599 63.36C68.5299 63.36 65.6699 65.23 65.6699 67.65V81.29C65.6699 83.6 68.5299 85.58 72.1599 85.58C75.7899 85.58 78.6499 83.71 78.6499 81.29V67.54C78.6499 65.23 75.7899 63.36 72.1599 63.36Z" fill="url(#paint5_linear)"/>
<path d="M68.6398 37.73H72.1598M64.1298 37.73H23.4298M23.4298 37.73H16.2798M23.4298 37.73L40.3698 17.38C41.3598 16.17 41.1398 14.41 39.9298 13.42C38.8298 12.54 37.1798 12.76 36.1898 13.86L16.2798 37.73M16.2798 37.73H9.7898C8.0298 37.73 6.3798 38.5 5.1698 39.6C4.0698 40.81 3.2998 42.46 3.2998 44.22C3.2998 47.52 5.8298 50.27 9.1298 50.6C9.3498 50.6 9.5698 50.6 9.7898 50.6H100.32C102.08 50.6 103.73 49.83 104.94 48.73C106.15 47.52 106.81 45.98 106.81 44.11C106.81 43.45 106.7 42.68 106.48 42.13C105.6 39.6 103.18 37.73 100.32 37.73H93.8298M93.8298 37.73L73.9198 13.97C72.9298 12.87 71.2798 12.65 70.1798 13.53C68.9698 14.52 68.7498 16.28 69.7398 17.49L86.6798 37.84M93.8298 37.73H76.6698M39.2698 98.12H89.4298L96.5798 58.85L98.1198 50.71M32.8898 98.12H20.5698L13.4198 58.85L11.8798 50.71M42.1298 81.18V67.54C42.1298 65.23 40.2598 63.25 37.8398 63.25C35.5298 63.25 33.5498 65.12 33.5498 67.54M76.4498 81.18V67.54C76.4498 65.23 74.5798 63.25 72.1598 63.25C69.8498 63.25 67.8698 65.12 67.8698 67.54M59.2898 81.18V67.54C59.2898 65.23 57.4198 63.25 54.9998 63.25C52.6898 63.25 50.7098 65.12 50.7098 67.54" stroke="#282C50" stroke-width="4" stroke-miterlimit="10"/>
<defs>
<linearGradient id="paint0_linear" x1="57.3647" y1="3.11663" x2="57.3647" y2="103.809" gradientUnits="userSpaceOnUse">
<stop stop-color="#0070A7" stop-opacity="0.7"/>
<stop offset="1" stop-color="#0070A7" stop-opacity="0"/>
</linearGradient>
<linearGradient id="paint1_linear" x1="57.3647" y1="3.11663" x2="57.3647" y2="103.809" gradientUnits="userSpaceOnUse">
<stop stop-color="#0070A7" stop-opacity="0.7"/>
<stop offset="1" stop-color="#0070A7" stop-opacity="0"/>
</linearGradient>
<linearGradient id="paint2_linear" x1="54.9529" y1="50.7272" x2="54.9529" y2="97.9509" gradientUnits="userSpaceOnUse">
<stop stop-color="#0070A7" stop-opacity="0.7"/>
<stop offset="1" stop-color="#0070A7" stop-opacity="0"/>
</linearGradient>
<linearGradient id="paint3_linear" x1="54.9529" y1="50.7272" x2="54.9529" y2="97.9509" gradientUnits="userSpaceOnUse">
<stop stop-color="#0070A7" stop-opacity="0.7"/>
<stop offset="1" stop-color="#0070A7" stop-opacity="0"/>
</linearGradient>
<linearGradient id="paint4_linear" x1="54.9529" y1="50.7272" x2="54.9529" y2="97.9509" gradientUnits="userSpaceOnUse">
<stop stop-color="#0070A7" stop-opacity="0.7"/>
<stop offset="1" stop-color="#0070A7" stop-opacity="0"/>
</linearGradient>
<linearGradient id="paint5_linear" x1="54.9529" y1="50.7272" x2="54.9529" y2="97.9509" gradientUnits="userSpaceOnUse">
<stop stop-color="#0070A7" stop-opacity="0.7"/>
<stop offset="1" stop-color="#0070A7" stop-opacity="0"/>
</linearGradient>
</defs>
</svg>
