<svg width="120" height="40" viewBox="0 0 120 40" fill="none" xmlns="http://www.w3.org/2000/svg">
<path fill-rule="evenodd" clip-rule="evenodd" d="M104.495 10.337C104.495 8.43562 104.468 7.20375 104.387 6.10578H107.815L107.976 8.4624H108.083C108.753 6.56103 110.279 5.78442 111.538 5.78442C111.913 5.78442 112.1 5.8112 112.368 5.86476V9.61392C112.046 9.56037 111.725 9.50681 111.297 9.50681C109.824 9.50681 108.833 10.2834 108.565 11.5153C108.511 11.7831 108.485 12.1044 108.485 12.399V18.9065H104.495V10.337ZM98.8976 11.06C98.8976 10.096 98.4691 8.4624 96.6481 8.4624C94.9609 8.4624 94.2915 10.0156 94.1843 11.06H98.8976ZM94.2111 13.7916C94.3182 15.4519 95.9786 16.2285 97.8264 16.2285C99.1921 16.2285 100.29 16.0411 101.361 15.6661L101.897 18.3709C100.585 18.9333 98.9779 19.1743 97.264 19.1743C92.8989 19.1743 90.4084 16.657 90.4084 12.64C90.4084 9.37291 92.4436 5.78442 96.8891 5.78442C101.04 5.78442 102.62 9.02477 102.62 12.1848C102.62 12.8543 102.54 13.4702 102.486 13.7648H94.2111V13.7916ZM76.2419 0.294577H80.2321V7.659H80.2856C80.7141 7.06985 81.2229 6.64137 81.8657 6.32002C82.4816 5.99866 83.2046 5.8112 83.9277 5.8112C86.4718 5.8112 88.4267 7.57867 88.4267 11.4617V18.9601H84.4365V11.8902C84.4365 10.2031 83.8474 9.05155 82.3745 9.05155C81.3301 9.05155 80.6606 9.74782 80.3928 10.4709C80.2857 10.7119 80.2589 11.06 80.2589 11.3278V18.9601H76.2687V0.294577H76.2419ZM65.3426 15.4787C66.0656 15.9339 67.592 16.416 68.7971 16.416C70.0022 16.416 70.511 16.0143 70.511 15.3716C70.511 14.6753 70.1093 14.3807 68.6365 13.8719C65.9585 12.9882 64.9409 11.5421 64.9676 10.0156C64.9676 7.60545 67.0029 5.78442 70.1897 5.78442C71.6894 5.78442 73.0016 6.15934 73.7782 6.53426L73.1087 9.29257C72.5195 8.97121 71.3948 8.56952 70.3236 8.56952C69.3595 8.56952 68.7971 8.97121 68.7971 9.58715C68.7971 10.2031 69.306 10.5244 70.8592 11.0868C73.2961 11.917 74.3138 13.2024 74.3138 15.0502C74.3138 17.4604 72.4392 19.2278 68.7704 19.2278C67.0832 19.2278 65.5836 18.8262 64.6195 18.3173L65.3426 15.4787ZM50.8815 18.9601V9.05155H49.1676V6.10578H50.8815V5.57019C50.8815 2.00848 53.613 0 57.5764 0C58.9422 0 60.5758 0.321357 61.3524 0.776613L60.6025 3.80272C59.9598 3.45459 58.9422 3.13323 57.6835 3.13323C55.5947 3.13323 54.8449 4.20442 54.8449 5.62374V6.079H62.6646V18.9333H58.6744V9.02477H54.8985V18.9333L50.8815 18.9601ZM43.7313 11.3278C43.7313 11.0868 43.7045 10.819 43.651 10.578C43.3564 9.53359 42.6066 8.81053 41.5086 8.81053C40.0357 8.81053 38.8842 10.1227 38.8842 12.4526C38.8842 14.3807 39.8215 15.8804 41.4818 15.8804C42.5262 15.8804 43.3564 15.2109 43.5974 14.2736C43.7045 13.9522 43.7313 13.5238 43.7313 13.2024V11.3278ZM47.7215 17.0855C47.7215 19.5492 47.2127 21.5845 45.7398 22.8699C44.3472 24.075 42.4459 24.4499 40.5445 24.4499C38.8306 24.4499 37.0899 24.1018 35.9384 23.4858L36.715 20.4329C37.5184 20.915 38.911 21.397 40.4374 21.397C42.312 21.397 43.7849 20.4062 43.7849 17.996V17.1926H43.7313C42.9815 18.237 41.7496 18.8529 40.2767 18.8529C37.0899 18.8529 34.8404 16.2821 34.8404 12.5865C34.8404 8.43562 37.4916 5.8112 40.6784 5.8112C42.4459 5.8112 43.5438 6.58781 44.1866 7.659H44.2401L44.374 6.10578H47.8286C47.775 6.93595 47.7215 8.03392 47.7215 9.93528V17.0855ZM20.674 10.2031C20.674 8.59629 20.6204 7.25731 20.5668 6.10578H24.0214L24.2089 7.90002H24.2892C24.8248 7.04307 26.1102 5.8112 28.2526 5.8112C30.877 5.8112 32.832 7.57867 32.832 11.3546V18.9601H28.8418V11.8366C28.8418 10.1763 28.2526 9.05155 26.8333 9.05155C25.7353 9.05155 25.0658 9.80138 24.7713 10.5512C24.6641 10.819 24.6374 11.1939 24.6374 11.5421V18.9601H20.6472V10.2031H20.674ZM13.979 6.10578H17.9692V18.9601H13.979V6.10578ZM18.1031 2.5173C18.1031 3.61526 17.2997 4.52578 15.9607 4.52578C14.7021 4.52578 13.8719 3.64204 13.8719 2.5173C13.8719 1.39255 14.7021 0.508815 15.9875 0.508815C17.2997 0.535595 18.0763 1.39255 18.1031 2.5173ZM3.99018 11.5153H4.04374C4.33832 10.9529 4.63289 10.4441 4.95425 9.96206L7.55188 6.10578H12.3722L7.76612 11.301L13.015 18.9333H8.11426L4.98103 13.6577L3.99018 14.9163V18.9333H0V0.294577H3.99018V11.5153ZM116.599 3.58849H116.92C117.295 3.58849 117.59 3.45459 117.59 3.16001C117.59 2.89221 117.402 2.73153 116.974 2.73153C116.786 2.73153 116.679 2.75831 116.599 2.75831V3.58849ZM116.572 5.22205H115.903V2.32984C116.17 2.30306 116.545 2.2495 117.001 2.2495C117.536 2.2495 117.804 2.32984 117.992 2.49052C118.179 2.62441 118.286 2.83865 118.286 3.10645C118.286 3.45459 118.018 3.6956 117.697 3.80272V3.8295C117.992 3.90984 118.125 4.15086 118.206 4.55256C118.286 4.98103 118.366 5.14171 118.42 5.24883H117.724C117.643 5.14171 117.59 4.90069 117.483 4.55256C117.429 4.25798 117.242 4.0973 116.894 4.0973H116.572V5.22205ZM114.778 3.72238C114.778 2.43696 115.742 1.39255 117.001 1.39255C118.286 1.39255 119.25 2.43696 119.25 3.72238C119.25 4.98103 118.286 6.02544 117.054 6.02544C115.769 6.05222 114.778 5.00781 114.778 3.72238ZM120 3.72238C120 5.35595 118.688 6.64138 117.027 6.64138C115.367 6.64138 114.028 5.35595 114.028 3.72238C114.028 2.08882 115.367 0.830171 117.027 0.830171C118.688 0.830171 120 2.08882 120 3.72238Z" fill="#0070A7"/>
<path fill-rule="evenodd" clip-rule="evenodd" d="M17.2999 31.4126C11.4351 31.0377 3.0263 29.2167 0.241211 26.9136C9.48022 32.0018 33.2606 30.8503 53.6132 26.0031C63.8163 23.593 73.5106 22.8163 83.5262 23.3519C94.4523 23.9411 105.887 28.4401 111.565 33.0194C102.995 27.7706 93.0865 26.6994 83.2316 26.2441C71.0736 25.6818 57.6034 28.1455 46.9183 29.913C35.8315 31.8143 27.1816 32.0554 17.2999 31.4126Z" fill="#E30016"/>
<path fill-rule="evenodd" clip-rule="evenodd" d="M66.762 36.3133H63.9501C63.8162 36.9293 64.084 37.3042 64.7267 37.331C65.1284 37.3577 65.664 37.2774 66.4942 36.8221L66.3335 37.813C66.28 37.9469 65.423 38.1879 64.7267 38.1879C63.2003 38.2415 62.6379 37.4381 62.6915 36.233C62.745 35.5635 63.0396 35.0279 63.361 34.6262C63.843 34.0638 64.4857 33.7693 65.1552 33.796C66.7888 33.8496 67.0298 35.0547 66.762 36.3133ZM65.7444 35.5635C65.7444 35.5099 65.7444 35.4832 65.7444 35.4564C65.7444 35.1886 65.664 35.0011 65.5301 34.8672C65.3962 34.7333 65.2356 34.6798 65.0213 34.6798C64.8071 34.6798 64.6196 34.7601 64.4589 34.894C64.2983 35.0547 64.1911 35.2689 64.1376 35.5635H65.7444ZM59.9599 33.9032H61.1115L60.9776 34.7065C61.2989 34.1977 61.8078 33.6621 62.7183 33.8228L62.5576 35.0279C61.8613 34.7333 61.2722 34.8672 60.8972 35.6171C60.7901 35.8581 60.683 36.2598 60.6027 36.7954L60.3884 38.1076H59.2369L59.9599 33.9032ZM51.0155 34.8137L51.1494 33.9567H51.7118L51.8993 32.7516H53.0508L52.8633 33.9567H54.122L53.9881 34.8137H52.7562L52.4884 36.3669C52.4348 36.715 52.3277 37.1971 52.8098 37.1971C52.8633 37.1971 53.2918 37.1971 53.506 37.1971L53.3454 38.0808C53.1579 38.1343 52.6223 38.1076 52.4348 38.1076C52.0331 38.1076 51.7386 38.0272 51.5243 37.8666C51.3369 37.7059 51.2298 37.4916 51.2298 37.1971C51.2298 37.0632 51.2565 36.7686 51.3637 36.2865L51.6315 34.8137H51.0155ZM46.6772 33.9032H47.8287L47.4003 36.1794C47.3199 36.5543 47.186 37.2238 47.8287 37.1971C48.525 37.1703 48.766 36.4204 48.8731 35.9116L49.2481 33.9032H50.3996L49.623 38.1076H48.525L48.5518 37.4916C48.1233 37.9201 47.7484 38.2147 47.2396 38.2147C46.9182 38.2147 46.6504 38.1076 46.463 37.9201C46.2755 37.7327 46.1684 37.4649 46.1416 37.1167C46.1416 36.9828 46.1684 36.6882 46.2487 36.2598L46.6772 33.9032ZM45.9541 33.9567L45.8203 34.8137H44.7758L44.2135 38.1076H43.0619L43.6243 34.8137H43.0352L43.1691 33.9567H43.785L43.8921 33.3943C43.9457 33.1265 44.2402 32.3499 45.1508 32.2964C45.5525 32.2696 45.9274 32.2696 46.4094 32.2964L46.2755 33.1533C45.4453 33.0462 45.0972 33.1801 45.0169 33.6086L44.9633 33.9835H45.9541V33.9567ZM70.8593 32.2964H72.0108L71.8234 33.3408H70.6986L70.8593 32.2964ZM70.5915 33.9032H71.743L71.02 38.1343H69.8685L70.5915 33.9032ZM72.1179 37.9201L72.3054 36.8757C72.7339 37.1703 73.1891 37.2774 73.5105 37.3042C73.8319 37.331 74.5013 37.3577 74.5281 36.956C74.5549 36.474 73.7515 36.6615 73.0552 36.1794C72.7071 35.9652 72.5464 35.5903 72.5732 35.1618C72.5732 34.8404 72.6803 34.5459 72.9213 34.3048C73.2695 33.9567 73.7783 33.796 74.4746 33.796C75.0369 33.796 75.5725 33.9031 75.9207 34.0638L75.76 35.0547C75.519 34.894 74.7959 34.653 74.3675 34.653C74.0193 34.653 73.6712 34.7333 73.6712 35.0547C73.6712 35.4296 74.3407 35.4028 74.9566 35.6438C75.3851 35.8045 75.76 36.0991 75.7332 36.7418C75.7064 37.7327 74.9834 38.1076 74.0729 38.1611C73.3498 38.2147 72.6 38.0808 72.1179 37.9201ZM93.2472 33.9032H94.4255L94.3184 34.5191C94.5862 34.2781 94.7468 34.1174 95.0414 33.9567C95.2824 33.8496 95.4967 33.8228 95.7645 33.8228C96.0858 33.8228 96.3268 33.9031 96.4875 34.0638C96.7553 34.3048 96.8356 34.653 96.8089 35.0011C96.7821 35.2154 96.7553 35.4832 96.7285 35.7242L96.3536 38.0808H95.1485L95.577 35.7242C95.6573 35.2957 95.6573 34.8404 95.1753 34.8137C94.3451 34.7869 94.1309 35.6974 94.0238 36.3669L93.7292 38.0808H92.5777L93.2472 33.9032ZM101.254 38.1076H100.076L100.156 37.5184C99.7814 38.0005 99.4601 38.1879 98.8977 38.1879C98.4692 38.1879 98.2282 38.0808 97.9604 37.7862C97.5855 37.3845 97.5319 36.7686 97.5855 36.1526C97.639 35.6171 97.8265 35.135 98.0675 34.7333C98.4157 34.1709 98.9512 33.8228 99.5672 33.8228C100.13 33.8228 100.424 34.037 100.719 34.5191L101.094 32.2964H102.272L101.254 38.1076ZM98.7638 36.3937C98.7638 36.8489 98.978 37.2506 99.4601 37.2506C99.9153 37.2506 100.183 36.8489 100.317 36.4472C100.424 36.1794 100.478 35.9116 100.478 35.6706C100.478 35.1618 100.29 34.7333 99.835 34.7333C99.5404 34.7333 99.2726 34.894 99.0584 35.2154C98.8709 35.5903 98.7638 36.0187 98.7638 36.3937ZM102.486 38.1076L103.504 32.2964H104.709L103.691 38.1076H102.486ZM105.191 33.9032H106.289L106.771 36.8757L108.137 33.9032H109.395L106.798 38.8574C106.45 39.5269 105.914 39.7411 105.405 39.7411H104.709L104.789 38.8842C105.057 38.9377 105.191 38.911 105.325 38.8842C105.7 38.8306 105.86 38.5896 106.021 38.1343L105.191 33.9032ZM55.0057 33.9032H56.1572L55.7288 36.1794C55.6484 36.5543 55.5145 37.2238 56.1572 37.1971C56.8535 37.1703 57.0945 36.4204 57.2016 35.9116L57.5766 33.9032H58.7281L57.9515 38.1076H56.8535L56.8803 37.4916C56.4518 37.9201 56.0769 38.2147 55.5681 38.2147C55.2467 38.2147 54.9789 38.1076 54.7915 37.9201C54.604 37.7327 54.4969 37.4649 54.4701 37.1167C54.4701 36.9828 54.4969 36.6882 54.5772 36.2598L55.0057 33.9032ZM82.6156 33.9032H83.7671L83.6332 34.7065C83.9546 34.1977 84.4634 33.6621 85.3739 33.8228L85.2132 35.0279C84.517 34.7333 83.9278 34.8672 83.5529 35.6171C83.4458 35.8581 83.3387 36.2598 83.2583 36.7954L83.0441 38.1076H81.8925L82.6156 33.9032ZM81.9461 33.9567L81.8122 34.8137H80.7678L80.2054 38.1076H79.0539L79.6163 34.8137H79.0271L79.161 33.9567H79.777L79.8841 33.3943C79.9376 33.1265 80.2322 32.3499 81.1427 32.2964C81.5444 32.2696 81.9193 32.2696 82.4014 32.2964L82.2675 33.1533C81.4373 33.0462 81.0892 33.1801 81.0088 33.6086L80.9553 33.9835L81.9461 33.9567ZM91.8814 36.3133H89.0695C88.9356 36.9293 89.2034 37.3042 89.8461 37.331C90.2478 37.3577 90.7834 37.2774 91.6136 36.8221L91.4529 37.813C91.3994 37.9469 90.5424 38.1879 89.8461 38.1879C88.3197 38.2415 87.7573 37.4381 87.8109 36.233C87.8644 35.5635 88.159 35.0279 88.4804 34.6262C88.9624 34.0638 89.6051 33.7693 90.2746 33.796C91.8814 33.8496 92.1224 35.0547 91.8814 36.3133ZM90.8638 35.5635C90.8638 35.5099 90.8638 35.4832 90.8638 35.4564C90.8638 35.1886 90.7834 35.0011 90.6495 34.8672C90.5156 34.7333 90.3549 34.6798 90.1407 34.6798C89.9265 34.6798 89.739 34.7601 89.5783 34.894C89.4177 35.0547 89.3105 35.2689 89.257 35.5635H90.8638ZM86.3915 32.2964H87.5431L87.3556 33.3408H86.2041L86.3915 32.2964ZM86.097 33.9032H87.2485L86.5254 38.1343H85.3739L86.097 33.9032Z" fill="#0070A7"/>
</svg>
