<svg width="88" height="74" viewBox="0 0 88 74" fill="none" xmlns="http://www.w3.org/2000/svg">
<path d="M83.2 36.5C80.1 41.8 75.9 46.3 71.5 50.6C65.3 56.7 46.7 70 41 74C36 70.5 20.8 59.6 13 53C12 52.2 11.1 51.4 10.4 50.7C9.80003 50.1 9.20004 49.5 8.60004 48.9C7.60004 47.5 6.60003 46.1 5.70003 44.6C-2.49997 30.9 -0.599966 11.9 14.3 3.7C19.8 0.500003 26.2 -0.599998 32.5 0.500002C38.5 1.5 43.9 4.5 47.9 9C52 4.5 57.4 1.5 63.3 0.500002C69.5 -0.699998 76 0.500003 81.5 3.7C82.5 4.3 83.5 4.9 84.5 5.6C89.7 14.8 88.9 26.9 83.2 36.5Z" fill="url(#paint0_linear)"/>
<defs>
<linearGradient id="paint0_linear" x1="44.3831" y1="0.0703484" x2="44.3831" y2="73.7362" gradientUnits="userSpaceOnUse">
<stop stop-color="#0070A7" stop-opacity="0.7"/>
<stop offset="1" stop-color="#0070A7" stop-opacity="0"/>
</linearGradient>
</defs>
</svg>
