<svg width="110" height="110" viewBox="0 0 110 110" fill="none" xmlns="http://www.w3.org/2000/svg">
<path d="M97.2 58.5C94.1 63.8 89.9 68.3 85.5 72.6C79.3 78.7 60.7 92 55 96C50 92.5 34.8 81.6 27 75C26 74.2 25.1 73.4 24.4 72.7C23.8 72.1 23.2 71.5 22.6 70.9C21.6 69.5 20.6 68.1 19.7 66.6C11.5 52.9 13.4 33.9 28.3 25.7C33.8 22.5 40.2 21.4 46.5 22.5C52.5 23.5 57.9 26.5 61.9 31C66 26.5 71.4 23.5 77.3 22.5C83.5 21.3 90 22.5 95.5 25.7C96.5 26.3 97.5 26.9 98.5 27.6C103.7 36.8 102.9 48.9 97.2 58.5Z" fill="url(#paint0_linear)"/>
<path d="M97.2004 58.5C94.1004 63.8 89.9004 68.3 85.5004 72.6C79.3004 78.7 60.7004 92 55.0004 96C53.3004 94.8 50.6004 92.9 47.4004 90.6C54.1004 85.9 70.9004 73.8 76.8004 68C81.2004 63.7 85.3004 59.2 88.5004 53.9C94.1004 44.4 94.9004 32.4 90.0004 23.2C91.9004 23.8 93.8004 24.6 95.6004 25.7C96.6004 26.3 97.6004 26.9 98.6004 27.6C103.7 36.8 102.9 48.9 97.2004 58.5Z" fill="url(#paint1_linear)"/>
<path d="M12.7996 58.5C4.59964 44.8 6.49964 25.8 21.3996 17.6C26.8996 14.4 33.2996 13.3 39.5996 14.4C45.5996 15.4 50.9996 18.4 54.9996 22.9C57.5996 20 60.7996 17.7 64.2996 16.2M84.7997 15.8C86.0997 16.3 87.3996 16.9 88.5996 17.6C92.5996 19.8 95.6997 22.8 97.8997 26.3C98.0997 26.7 98.3996 27.1 98.5996 27.5C103.7 36.8 103 48.9 97.2997 58.5C94.1997 63.8 89.9996 68.3 85.5996 72.6C79.2996 78.7 60.6996 92 54.9996 96C49.9996 92.5 34.7996 81.6 26.9996 75C25.9996 74.2 25.0996 73.4 24.3996 72.7C23.7996 72.1 23.1996 71.5 22.5996 70.9C20.2996 68.6 18.0996 66.1 16.0996 63.6M70.3996 14.4C72.6996 14 75.0996 13.9 77.3996 14" stroke="#282C50" stroke-width="4" stroke-miterlimit="10"/>
<defs>
<linearGradient id="paint0_linear" x1="58.3831" y1="22.0703" x2="58.3831" y2="95.7362" gradientUnits="userSpaceOnUse">
<stop stop-color="#0070A7" stop-opacity="0.7"/>
<stop offset="1" stop-color="#0070A7" stop-opacity="0"/>
</linearGradient>
<linearGradient id="paint1_linear" x1="74.6666" y1="23.2264" x2="74.6666" y2="95.7403" gradientUnits="userSpaceOnUse">
<stop stop-color="#0070A7" stop-opacity="0.7"/>
<stop offset="1" stop-color="#0070A7" stop-opacity="0"/>
</linearGradient>
</defs>
</svg>
