<svg width="40" height="40" viewBox="0 0 40 40" fill="none" xmlns="http://www.w3.org/2000/svg">
<circle cx="21.5" cy="18.5" r="13.5" fill="url(#paint0_linear)"/>
<path d="M13.9 26.1L26.1 13.9M22.5 5.90002C23.2 7.20002 24.9 7.80002 26.3 7.10002C28.3 6.10002 30.7 7.80002 30.4 10.1C30.2 11.6 31.2 13 32.7 13.3C34.9 13.7 35.8 16.4 34.3 18.1C33.2 19.2 33.2 20.9 34.3 22C35.9 23.6 35 26.4 32.7 26.8C31.2 27.1 30.2 28.5 30.4 30C30.7 32.3 28.4 33.9 26.3 33C24.9 32.3 23.3 32.9 22.5 34.2C21.4 36.2 18.6 36.2 17.5 34.2C16.8 32.9 15.1 32.3 13.7 33C11.7 34 9.29998 32.3 9.59998 30C9.79998 28.5 8.79997 27.1 7.29997 26.8C5.09997 26.4 4.19997 23.7 5.69997 22C6.79997 20.9 6.79997 19.2 5.69997 18.1C4.09997 16.5 4.99997 13.7 7.29997 13.3C8.79997 13 9.79998 11.6 9.59998 10.1C9.29998 7.80002 11.6 6.20002 13.7 7.10002C15.1 7.80002 16.7 7.20002 17.5 5.90002C18.6 3.90002 21.4 3.90002 22.5 5.90002ZM18.6 16.2C18.6 17.9673 17.1673 19.4 15.4 19.4C13.6327 19.4 12.2 17.9673 12.2 16.2C12.2 14.4327 13.6327 13 15.4 13C17.1673 13 18.6 14.4327 18.6 16.2ZM27.8 23.8C27.8 25.5673 26.3673 27 24.6 27C22.8327 27 21.4 25.5673 21.4 23.8C21.4 22.0327 22.8327 20.6 24.6 20.6C26.3673 20.6 27.8 22.0327 27.8 23.8Z" stroke="#282C50" stroke-width="1.5" stroke-miterlimit="10"/>
<defs>
<linearGradient id="paint0_linear" x1="21.5" y1="5" x2="21.5" y2="32" gradientUnits="userSpaceOnUse">
<stop stop-color="#0070A7" stop-opacity="0.7"/>
<stop offset="1" stop-color="#0070A7" stop-opacity="0"/>
</linearGradient>
</defs>
</svg>
