<svg width="40" height="40" viewBox="0 0 40 40" fill="none" xmlns="http://www.w3.org/2000/svg">
<path d="M22.6635 33.3615L16.7396 31.1341C12.685 29.6096 10 25.7315 10 21.3997C10 15.6561 14.6561 11 20.3997 11H22.7349C29.5087 11 35 16.4913 35 23.2651V25.5444C35 28.4332 33.4861 31.1108 31.0106 32.6C28.4908 34.1159 25.4161 34.3964 22.6635 33.3615Z" fill="url(#paint0_linear)"/>
<path d="M10.9 12.7L15.4 5L28.5 12.7M30.6 35H9.39998C8.19998 35 7.09998 34 7.09998 32.7V14.9C7.09998 13.7 8.09998 12.6 9.39998 12.6H30.7C31.9 12.6 33 13.6 33 14.9V32.7C32.9 34 31.9 35 30.6 35ZM32.9 28.6H26.6C25.1 28.6 23.9 27.4 23.9 25.9V21.7C23.9 20.2 25.1 19 26.6 19H32.9V28.6ZM30.2 23.8C30.2 24.6284 29.5284 25.3 28.7 25.3C27.8715 25.3 27.2 24.6284 27.2 23.8C27.2 22.9716 27.8715 22.3 28.7 22.3C29.5284 22.3 30.2 22.9716 30.2 23.8Z" stroke="#282C50" stroke-width="1.5" stroke-miterlimit="10"/>
<defs>
<linearGradient id="paint0_linear" x1="22.5" y1="11" x2="22.5" y2="33.9771" gradientUnits="userSpaceOnUse">
<stop stop-color="#0070A7" stop-opacity="0.7"/>
<stop offset="1" stop-color="#0070A7" stop-opacity="0"/>
</linearGradient>
</defs>
</svg>
