<svg width="20" height="20" viewBox="0 0 20 20" fill="none" xmlns="http://www.w3.org/2000/svg">
<path d="M3 13C3 9.09995 6.1 5.99995 10 5.99995C13.9 5.99995 17 9.09995 17 13M7.8 6.29995C7.8 6.19995 7.8 6.09995 7.8 5.99995V4.99995C7.8 4.29995 8.4 3.69995 9.1 3.69995H11C11.7 3.69995 12.3 4.29995 12.3 4.99995V6.09995C12.3 6.19995 12.3 6.29995 12.3 6.39995M17 16.3H3C2.4 16.3 2 15.9 2 15.3C2 14.7 2.4 14.3 3 14.3H17C17.6 14.3 18 14.7 18 15.3C18 15.8 17.6 16.3 17 16.3Z" stroke="#92979E" stroke-width="1.5" stroke-miterlimit="10"/>
</svg>
