<svg width="40" height="40" viewBox="0 0 40 40" fill="none" xmlns="http://www.w3.org/2000/svg">
<path d="M39 27.1483C39 29.2755 37.2755 31 35.1483 31H14C6.8203 31 1 25.1797 1 18V12.1363C1 8.19501 4.19501 5 8.13626 5C11.3217 5 14.1215 7.11125 14.9974 10.1739L16.0316 13.7898C17.4121 18.6169 21.6252 22.0936 26.6266 22.533L35.4854 23.3113C37.4743 23.486 39 25.1517 39 27.1483Z" fill="url(#paint0_linear)"/>
<path d="M13 29.3H23.2M23.2 29.3V13.1M23.2 29.3H26.8M23.2 13.1V6.39999H3V29.3H6.4M23.2 13.1H30.1M30.1 13.1H33.8L37 19.7M30.1 13.1V19.7H37M37 19.7V29.3H33.4M7.1 11.1H19.1M7.1 15.6H19.1M33.5 30.2C33.5 32.0778 31.9778 33.6 30.1 33.6C28.2222 33.6 26.7 32.0778 26.7 30.2C26.7 28.3222 28.2222 26.8 30.1 26.8C31.9778 26.8 33.5 28.3222 33.5 30.2ZM13.1 30.2C13.1 32.0778 11.5778 33.6 9.7 33.6C7.82223 33.6 6.3 32.0778 6.3 30.2C6.3 28.3222 7.82223 26.8 9.7 26.8C11.5778 26.8 13.1 28.3222 13.1 30.2Z" stroke="#282C50" stroke-width="1.5" stroke-miterlimit="10"/>
<defs>
<linearGradient id="paint0_linear" x1="20" y1="5" x2="20" y2="31" gradientUnits="userSpaceOnUse">
<stop stop-color="#0070A7" stop-opacity="0.7"/>
<stop offset="1" stop-color="#0070A7" stop-opacity="0"/>
</linearGradient>
</defs>
</svg>
