<svg width="31" height="30" viewBox="0 0 31 30" fill="none" xmlns="http://www.w3.org/2000/svg">
<path fill-rule="evenodd" clip-rule="evenodd" d="M10.6338 5.2C11.4338 4.8 11.8338 5 12.6338 5.2C12.9338 5.3 13.1338 5.5 13.2338 5.8C13.5338 7.4 13.6338 8.9 13.5338 10.4C13.5338 11.3 12.2338 11.8 11.5338 12.3C11.6338 14.9 13.7338 18.5 15.9338 19.9C16.7338 19.6 17.8338 18.7 18.6338 19.1C19.9338 19.8 21.1338 20.5 22.4338 21.6C22.6338 21.8 22.7338 22.1 22.6338 22.4C22.3338 23.2 22.3338 23.6 21.6338 24.1C14.8338 29.5 2.83377 8.7 10.6338 5.2Z" stroke="#0070A7" stroke-width="1.5" stroke-miterlimit="10"/>
</svg>
