<svg width="22" height="20" viewBox="0 0 22 20" fill="none" xmlns="http://www.w3.org/2000/svg">
<path d="M17.7928 2.44759C16.6822 1.80215 15.3819 1.57434 14.1194 1.81164C12.914 2.01097 11.8129 2.61844 10.9966 3.52017C10.1803 2.61844 9.07928 2.01097 7.87381 1.81164C6.6114 1.57434 5.31102 1.80215 4.20047 2.44759C1.20105 4.11816 0.821375 7.94337 2.46346 10.7055C3.09942 11.7686 3.94419 12.6893 4.82693 13.553C6.08935 14.787 9.84812 17.4637 10.9966 18.28C12.1451 17.4732 15.8944 14.7965 17.1663 13.553C18.0491 12.6893 18.8938 11.7686 19.5298 10.7055C21.1814 7.95286 20.8017 4.11816 17.7928 2.44759Z" stroke="#0070A7" stroke-width="1.5" stroke-miterlimit="10"/>
</svg>
