<svg width="22" height="20" viewBox="0 0 22 20" fill="none" xmlns="http://www.w3.org/2000/svg">
<path d="M17.7928 2.44753C16.6822 1.80208 15.3819 1.57428 14.1194 1.81158C12.914 2.01091 11.8129 2.61838 10.9966 3.52011C10.1803 2.61838 9.07928 2.01091 7.87381 1.81158C6.6114 1.57428 5.31102 1.80208 4.20047 2.44753C1.20105 4.11809 0.821375 7.94331 2.46346 10.7054C3.09942 11.7685 3.94419 12.6892 4.82693 13.553C6.08935 14.7869 9.84812 17.4636 10.9966 18.2799C12.1451 17.4731 15.8944 14.7964 17.1663 13.553C18.0491 12.6892 18.8938 11.7685 19.5298 10.7054C21.1814 7.9528 20.8017 4.11809 17.7928 2.44753Z" stroke="#92979E" stroke-width="1.5" stroke-miterlimit="10"/>
</svg>
